<svg version="1.1" xmlns="http://www.w3.org/2000/svg" width="214" height="64">

    <defs>
        <mask id="shadow">
            <rect x="40" width="64" height="64" fill="white" />
            <circle cx="76" cy="28" r="28" stroke-width="8" fill="white" stroke="black" />
        </mask>
    </defs>

    <circle cx="72" cy="32" r="28" stroke-width="8" fill="transparent" stroke="black" mask="url(#shadow)" />

    <!-- T glyph -->
    <path d="M 0 8
        h 39
        v 7
        h -16
        v 41
        h -7
        v -41
        h -16
        v -7"
    />

    <!-- R glyph -->
    <path d="M 108 8
        h 14
        a 18 16 0 0 1 0 32
        h -8
        v -7
        h 8
        a 11 9 0 0 0 0 -18
        h -7
        v 41
        h -7
        v 48"
    />
    <path d="M 119 36
        h 9
        l 16 20
        h -9
        l -16 -20"
    />

    <!-- Y glyph -->
    <path d="M 142 8
        h 7.5
        l 12 24
        l 12 -24
        h 7.5
        l -16 32
        v 16
        h -7
        v -16
        l -16 -32"
    />

    <!-- S glyph -->
    <path d="M 214 12
        c -4 -2 -8 -4 -16 -4
        s -14 4 -14 12
        s 8 12 16 16
        s 8 7 8 9
        s -2 5 -8 5
        s -12 -2 -16 -6
        v 8
        c 4 2 8 4 16 4
        s 14 -4 14 -12
        s -8 -12 -16 -16
        s -8 -7 -8 -9
        s 2 -5 8 -5
        s 12 2 16 6
        v -8"
    />

</svg>
