<?xml version="1.0" standalone="no"?>
<!DOCTYPE svg PUBLIC "-//W3C//DTD SVG 20010904//EN"
 "http://www.w3.org/TR/2001/REC-SVG-20010904/DTD/svg10.dtd">
<svg version="1.0" xmlns="http://www.w3.org/2000/svg"
 width="700.000000pt" height="700.000000pt" viewBox="0 0 700.000000 700.000000"
 preserveAspectRatio="xMidYMid meet">
<metadata>
Created by potrace 1.14, written by Peter Selinger 2001-2017
</metadata>
<g transform="translate(0.000000,700.000000) scale(0.100000,-0.100000)"
fill="#000000" stroke="none">
<path d="M3877 6563 c-1 0 -54 -4 -117 -7 -63 -4 -122 -9 -130 -11 -8 -2 -37
-6 -65 -10 -139 -16 -355 -70 -520 -130 -289 -104 -570 -267 -815 -474 -60
-51 -241 -230 -279 -277 -13 -16 -35 -42 -50 -59 -14 -16 -19 -24 -11 -19 8 6
61 43 117 82 56 40 105 72 108 72 4 0 19 8 33 19 101 70 367 193 529 244 71
23 209 60 268 73 57 13 116 23 164 29 30 4 63 8 74 11 89 17 403 23 532 10 78
-8 209 -24 246 -31 532 -99 1003 -343 1379 -715 90 -90 184 -194 240 -269 14
-18 34 -45 46 -59 53 -70 154 -236 216 -357 120 -234 222 -551 252 -785 3 -25
8 -54 10 -65 25 -129 25 -448 0 -670 -4 -41 -46 -262 -59 -315 -68 -278 -231
-627 -405 -870 -26 -36 -50 -72 -55 -80 -8 -15 -3 -11 85 66 65 57 208 201
260 263 25 29 53 62 62 73 9 11 45 60 80 109 222 313 378 676 444 1034 9 50
17 97 19 105 3 17 15 130 21 200 10 109 4 380 -10 480 -2 14 -7 52 -11 85 -6
49 -22 132 -50 255 -70 318 -268 719 -495 1004 -403 508 -1030 871 -1650 957
-41 5 -86 12 -100 14 -46 8 -358 24 -363 18z"/>
<path d="M1205 6144 c-87 -78 -254 -244 -320 -318 -223 -250 -446 -592 -570
-876 -25 -58 -50 -114 -55 -125 -46 -95 -149 -424 -176 -560 -1 -5 -9 -46 -18
-90 -29 -150 -36 -193 -53 -375 -15 -162 -8 -591 12 -711 2 -13 6 -46 9 -74 9
-78 23 -156 51 -285 23 -107 88 -333 114 -395 5 -11 25 -65 46 -120 63 -166
249 -531 312 -610 4 -6 34 -49 65 -95 171 -256 432 -534 708 -755 92 -74 370
-265 386 -265 4 0 15 -6 23 -14 26 -22 298 -158 408 -204 282 -116 583 -199
862 -238 25 -3 57 -8 71 -10 163 -25 682 -25 842 1 13 2 46 7 73 10 74 11 87
13 120 19 17 4 46 9 65 12 52 9 214 48 300 74 651 191 1214 553 1671 1075 26
29 9 19 -66 -40 -304 -238 -673 -435 -1054 -562 -122 -40 -386 -107 -486 -122
-38 -6 -79 -13 -90 -15 -19 -3 -53 -7 -178 -22 -182 -20 -487 -20 -680 1 -29
3 -77 8 -107 11 -30 3 -62 7 -70 9 -8 3 -33 7 -55 10 -600 90 -1266 406 -1740
825 -139 123 -355 354 -463 495 -92 120 -221 317 -281 430 -17 32 -35 63 -40
69 -12 16 -118 247 -153 336 -134 333 -211 669 -243 1065 -6 71 -6 414 -1 465
2 19 7 67 11 105 6 65 15 140 30 240 4 22 13 72 21 110 8 39 17 81 20 95 20
107 126 443 168 535 8 17 29 64 47 105 29 65 124 256 162 323 42 76 206 317
270 400 42 53 75 97 74 97 -1 0 -20 -17 -42 -36z"/>
</g>
</svg>
